<?xml version="1.0" standalone="no"?>
<!DOCTYPE svg PUBLIC "-//W3C//DTD SVG 20010904//EN"
 "http://www.w3.org/TR/2001/REC-SVG-20010904/DTD/svg10.dtd">
<svg version="1.0" xmlns="http://www.w3.org/2000/svg"
 width="240.000000pt" height="50.000000pt" viewBox="0 0 240.000000 50.000000"
 preserveAspectRatio="xMidYMid meet">

<g transform="translate(0.000000,50.000000) scale(0.100000,-0.100000)"
fill="#000000" stroke="none">
<path d="M290 372 c0 -5 7 -15 15 -22 8 -7 15 -8 15 -2 0 5 -7 15 -15 22 -8 7
-15 8 -15 2z"/>
<path d="M940 362 c0 -5 7 -15 15 -22 8 -7 15 -8 15 -2 0 5 -7 15 -15 22 -8 7
-15 8 -15 2z"/>
<path d="M1612 358 c2 -6 10 -14 16 -16 7 -2 10 2 6 12 -7 18 -28 22 -22 4z"/>
<path d="M260 352 c0 -5 7 -15 15 -22 8 -7 15 -8 15 -2 0 5 -7 15 -15 22 -8 7
-15 8 -15 2z"/>
<path d="M520 311 c-26 -28 -72 -61 -110 -79 -74 -36 -52 -44 30 -12 l50 20 0
-85 c0 -78 2 -85 20 -85 19 0 20 7 20 99 l0 99 41 35 c38 34 39 36 20 46 -11
6 -21 11 -23 10 -2 0 -23 -22 -48 -48z"/>
<path d="M1420 319 c-6 -21 -26 -54 -44 -74 -50 -53 -24 -53 32 -1 44 41 54
46 96 46 l48 0 -7 -32 c-19 -86 -64 -135 -150 -160 -39 -12 -39 -12 -11 -16
42 -5 107 23 145 62 37 38 76 135 61 150 -5 5 -37 8 -70 7 -60 -2 -61 -2 -55
22 5 19 2 25 -14 30 -17 4 -23 -1 -31 -34z"/>
<path d="M1582 340 c13 -20 28 -27 28 -12 0 10 -22 32 -32 32 -5 0 -3 -9 4
-20z"/>
<path d="M110 333 c0 -23 -36 -83 -62 -104 -13 -10 -17 -19 -10 -23 6 -4 32
14 58 39 43 41 52 45 96 45 52 0 55 -4 36 -57 -14 -39 -17 -39 -65 -13 -51 27
-59 16 -15 -25 l37 -35 -23 -20 c-13 -11 -43 -25 -65 -32 -60 -17 -71 -32 -20
-25 70 9 132 44 164 96 31 48 52 108 43 123 -3 4 -34 8 -70 8 -56 0 -64 2 -62
18 2 11 -4 18 -19 20 -17 3 -23 -2 -23 -15z"/>
<path d="M720 232 c0 -78 4 -122 12 -130 16 -16 198 -17 198 -1 0 7 -18 8 -54
4 -30 -4 -68 -4 -85 0 -30 6 -31 8 -31 60 0 54 8 65 49 65 10 0 41 7 71 16 46
14 51 17 38 30 -12 13 -20 12 -59 -5 -24 -10 -56 -21 -71 -25 -28 -6 -28 -6
-28 49 0 48 -2 55 -20 55 -19 0 -20 -7 -20 -118z"/>
<path d="M910 342 c0 -5 7 -15 15 -22 8 -7 15 -8 15 -2 0 5 -7 15 -15 22 -8 7
-15 8 -15 2z"/>
<path d="M1080 312 c33 -29 48 -37 58 -30 6 6 12 14 12 18 0 13 -48 40 -83 47
l-32 6 45 -41z"/>
<path d="M1670 220 c0 -109 2 -130 15 -130 8 0 15 5 15 10 0 7 6 7 19 0 34
-18 78 -12 95 12 21 30 20 107 0 137 -15 21 -22 23 -65 18 l-49 -6 0 44 c0 33
-4 45 -15 45 -13 0 -15 -21 -15 -130z m112 16 c4 -6 8 -31 8 -56 0 -67 -28
-92 -69 -64 -29 21 -30 95 -1 124 20 20 47 18 62 -4z"/>
<path d="M1880 220 c0 -123 1 -130 20 -130 19 0 20 7 20 130 0 123 -1 130 -20
130 -19 0 -20 -7 -20 -130z"/>
<path d="M2337 273 c-4 -3 -33 -5 -65 -4 -40 1 -62 -2 -70 -12 -14 -16 -14
-96 0 -113 5 -8 3 -14 -7 -18 -22 -8 -19 -53 4 -66 29 -15 104 -12 129 6 46
32 13 84 -54 84 -21 0 -46 5 -54 10 -17 11 -10 13 38 10 46 -2 85 25 79 56 -2
13 -1 24 3 24 4 0 10 7 14 15 5 15 -5 20 -17 8z m-47 -28 c6 -8 9 -23 5 -35
-10 -31 -59 -24 -63 9 -6 37 34 55 58 26z m-5 -115 c20 -7 26 -16 23 -33 -3
-19 -9 -22 -43 -22 -31 0 -41 4 -43 19 -2 11 4 26 14 33 21 16 17 15 49 3z"/>
<path d="M1241 229 c-35 -43 -137 -99 -178 -99 -26 0 -35 -12 -27 -35 19 -49
193 56 239 144 22 43 6 38 -34 -10z"/>
<path d="M1991 244 c-50 -64 -11 -154 67 -154 54 0 82 31 82 91 0 60 -29 89
-87 89 -33 0 -46 -6 -62 -26z m93 0 c33 -33 14 -144 -25 -144 -5 0 -18 9 -29
20 -24 24 -27 86 -4 118 18 26 37 28 58 6z"/>
</g>
</svg>
